<svg width="113" height="123" viewBox="0 0 113 123" fill="none" xmlns="http://www.w3.org/2000/svg">
<path d="M74.2226 0.656859L2.72265 42.1568C0.0844464 43.8441 -0.351601 45.2004 0.222653 48.1568C0.222653 48.1568 41.9291 119.834 42.7227 121.157C43.5162 122.479 47.0143 123.452 50.2227 121.657L96.7226 94.6569L83.2225 71.1569C81.5771 67.9872 81.8075 66.3251 85.2226 63.6568L108.723 50.1568L80.7226 1.65686C79.2225 -0.343148 75.7225 -0.34314 74.2226 0.656859Z" fill="#FFC700"/>
<path d="M89.7225 70.1569L101.222 90.1569C102.507 91.3047 103.156 91.3183 104.222 90.1569L112.222 57.6569C112.094 56.284 111.553 56.065 109.722 56.6569L90.2225 67.6569C89.3128 68.3783 89.1406 68.9024 89.7225 70.1569Z" fill="#282828"/>
</svg>
